<?xml version="1.0" encoding="UTF-8" standalone="no"?>
<!-- Created with Inkscape (http://www.inkscape.org/) -->
<svg
   xmlns:i="http://ns.adobe.com/AdobeIllustrator/10.0/"
   xmlns:dc="http://purl.org/dc/elements/1.1/"
   xmlns:cc="http://creativecommons.org/ns#"
   xmlns:rdf="http://www.w3.org/1999/02/22-rdf-syntax-ns#"
   xmlns:svg="http://www.w3.org/2000/svg"
   xmlns="http://www.w3.org/2000/svg"
   xmlns:xlink="http://www.w3.org/1999/xlink"
   xmlns:sodipodi="http://sodipodi.sourceforge.net/DTD/sodipodi-0.dtd"
   xmlns:inkscape="http://www.inkscape.org/namespaces/inkscape"
   width="1116.1417"
   height="298.11798"
   id="svg5041"
   sodipodi:version="0.32"
   inkscape:version="0.46"
   sodipodi:docbase="/home/robot101"
   sodipodi:docname="collabora-logo.svg"
   version="1.0"
   inkscape:output_extension="org.inkscape.output.svg.inkscape"
   inkscape:export-filename="/home/sjoerd/Work/collabora/mingle-proposal/mingle/images/collabora-logo.png"
   inkscape:export-xdpi="90"
   inkscape:export-ydpi="90">
  <defs
     id="defs5043">
    <inkscape:perspective
       sodipodi:type="inkscape:persp3d"
       inkscape:vp_x="0 : 372.04724 : 1"
       inkscape:vp_y="0 : 1000 : 0"
       inkscape:vp_z="1052.3622 : 372.04724 : 1"
       inkscape:persp3d-origin="526.18109 : 248.03149 : 1"
       id="perspective50" />
    <linearGradient
       inkscape:collect="always"
       id="linearGradient2299">
      <stop
         style="stop-color:#729fcf"
         offset="0"
         id="stop2301" />
      <stop
         style="stop-color:#204a87"
         offset="1"
         id="stop2303" />
    </linearGradient>
    <linearGradient
       inkscape:collect="always"
       xlink:href="#linearGradient2299"
       id="linearGradient1465"
       gradientUnits="userSpaceOnUse"
       gradientTransform="translate(-35,-392)"
       x1="210.31523"
       y1="513.20483"
       x2="218.00374"
       y2="561.11133" />
    <linearGradient
       inkscape:collect="always"
       id="linearGradient2277">
      <stop
         style="stop-color:#729fcf"
         offset="0"
         id="stop2279" />
      <stop
         style="stop-color:#204a87"
         offset="1"
         id="stop2281" />
    </linearGradient>
    <linearGradient
       inkscape:collect="always"
       xlink:href="#linearGradient2277"
       id="linearGradient1463"
       gradientUnits="userSpaceOnUse"
       gradientTransform="translate(-35,-392)"
       x1="156.27637"
       y1="519.47235"
       x2="168.11945"
       y2="588.41528" />
    <radialGradient
       inkscape:collect="always"
       xlink:href="#linearGradient2248"
       id="radialGradient1461"
       gradientUnits="userSpaceOnUse"
       gradientTransform="matrix(1.550415,-4.746643e-6,6.036308e-6,1.971663,-152.6655,-900.8159)"
       cx="209.66589"
       cy="518.98993"
       fx="209.66589"
       fy="518.98993"
       r="21.839567" />
    <linearGradient
       inkscape:collect="always"
       id="linearGradient2248">
      <stop
         style="stop-color:#729fcf"
         offset="0"
         id="stop2250" />
      <stop
         style="stop-color:#204a87"
         offset="1"
         id="stop2252" />
    </linearGradient>
    <radialGradient
       inkscape:collect="always"
       xlink:href="#linearGradient2248"
       id="radialGradient1459"
       gradientUnits="userSpaceOnUse"
       gradientTransform="matrix(1.868658,-0.148746,0.168018,2.110777,-257.031,-963.2931)"
       cx="152.6485"
       cy="532.39001"
       fx="152.6485"
       fy="532.39001"
       r="29.863501" />
    <radialGradient
       inkscape:collect="always"
       xlink:href="#linearGradient2316"
       id="radialGradient1457"
       gradientUnits="userSpaceOnUse"
       gradientTransform="matrix(1,0,0,0.446154,0,218.1391)"
       cx="37.5"
       cy="393.86218"
       fx="37.5"
       fy="393.86218"
       r="32.5" />
    <linearGradient
       inkscape:collect="always"
       id="linearGradient2316">
      <stop
         style="stop-color:#000000;stop-opacity:1;"
         offset="0"
         id="stop2318" />
      <stop
         style="stop-color:#000000;stop-opacity:0;"
         offset="1"
         id="stop2320" />
    </linearGradient>
    <radialGradient
       inkscape:collect="always"
       xlink:href="#linearGradient2316"
       id="radialGradient1455"
       gradientUnits="userSpaceOnUse"
       gradientTransform="matrix(1,0,0,0.446154,0,218.1391)"
       cx="37.5"
       cy="393.86218"
       fx="37.5"
       fy="393.86218"
       r="32.5" />
    <linearGradient
       id="linearGradient10317">
      <stop
         style="stop-color:#000000;stop-opacity:0"
         offset="0.0000000"
         id="stop10319" />
      <stop
         id="stop2329"
         offset="0"
         style="stop-color:#195be9;stop-opacity:1;" />
      <stop
         id="stop2296"
         offset="1"
         style="stop-color:#000945;stop-opacity:1;" />
    </linearGradient>
  </defs>
  <sodipodi:namedview
     inkscape:document-units="mm"
     pagecolor="#d70000"
     bordercolor="#666666"
     borderopacity="1.0"
     inkscape:pageopacity="0"
     inkscape:pageshadow="2"
     inkscape:zoom="0.6462536"
     inkscape:cx="419.56818"
     inkscape:cy="258.93132"
     inkscape:current-layer="layer1"
     id="namedview5045"
     inkscape:window-width="1014"
     inkscape:window-height="716"
     inkscape:window-x="1284"
     inkscape:window-y="45"
     showguides="true"
     inkscape:guide-bbox="true"
     showgrid="false"
     units="mm">
    <sodipodi:guide
       orientation="horizontal"
       position="67.956846"
       id="guide9601" />
  </sodipodi:namedview>
  <metadata
     id="metadata5047">
    <rdf:RDF>
      <cc:Work
         rdf:about="">
        <dc:format>image/svg+xml</dc:format>
        <dc:type
           rdf:resource="http://purl.org/dc/dcmitype/StillImage" />
      </cc:Work>
    </rdf:RDF>
  </metadata>
  <g
     inkscape:label="Layer 1"
     inkscape:groupmode="layer"
     id="layer1"
     transform="translate(-64.704228,-68.059614)">
    <g
       id="g2422"
       transform="translate(177.16535,0)">
      <g
         id="g5034">
        <path
           sodipodi:nodetypes="cccccccccssccccccccccccccccccccccc"
           id="path10625"
           d="M 787.7841,89.641208 C 768.83283,75.148508 744.72629,66.060408 720.56323,68.435808 C 704.61134,70.950008 688.92017,78.166808 679.47251,91.489608 C 665.53958,109.68531 664.92942,135.12381 672.50703,155.93281 C 685.03017,188.90041 714.91552,215.36031 749.86713,222.53361 C 760.57996,225.21761 771.79594,224.01231 782.46285,222.57801 C 792.05226,222.82071 800.29654,233.48931 797.42145,242.61471 C 794.07449,248.57731 788.37188,253.29731 786.77885,260.10831 C 782.6054,271.72301 786.96565,285.06341 796.7604,292.44591 C 807.76324,301.45851 824.28106,303.73941 836.38175,296.45221 C 844.63411,291.48251 851.39759,283.93171 854.48228,276.18481 C 857.51082,268.57911 860.87441,259.06281 869.81642,256.34631 C 876.63201,254.38351 883.03363,258.52251 888.54357,262.04141 C 893.80258,264.58681 901.66024,261.46561 905.20112,267.17171 C 908.32561,273.43101 904.63506,280.58051 901.85052,286.29591 C 897.69518,293.36541 893.29412,301.45521 895.68293,309.87481 C 897.60178,318.61361 907.36537,324.19601 916.0908,322.07631 C 926.29741,320.57591 932.8159,311.50651 941.46468,307.02771 C 945.95103,305.99161 946.76647,312.12171 950.24926,313.14161 C 959.87018,316.03771 968.6368,307.02351 970.73749,298.39641 C 973.72522,292.11131 968.82654,282.40821 961.2006,283.84821 C 954.67292,285.40471 951.26057,292.10221 945.20072,294.60131 C 939.01048,291.40911 940.80148,282.82551 935.80665,278.70321 C 931.56307,274.29021 924.79926,275.03711 919.62589,272.91131 C 913.21286,268.09211 915.71468,259.15021 917.51536,252.74791 C 920.82945,242.87711 924.25007,230.85441 917.58377,221.56481 C 913.20613,214.27201 903.91608,209.98771 895.53449,212.88371 C 884.25673,215.67111 877.63756,226.67661 874.48928,237.02701 C 869.50047,247.32381 854.44507,250.26301 845.63595,243.03931 C 839.262,238.71961 831.96023,234.97401 824.05346,235.20221 C 817.10749,233.96721 815.47642,225.48681 815.75663,219.60911 C 816.43363,204.63471 822.39818,190.63751 825.72086,176.13801 C 828.88915,156.48411 825.95724,135.60931 814.9743,118.82291 C 807.95157,107.47531 798.52692,97.693208 787.7841,89.641208 z"
           style="fill:#204a87;fill-opacity:1;fill-rule:evenodd;stroke:none;stroke-width:1px;stroke-linecap:butt;stroke-linejoin:miter;stroke-opacity:0.58536545" />
        <path
           style="fill:#204a87;fill-opacity:1;stroke:none;stroke-opacity:0.51829266"
           d="M 854.64927,303.90391 C 844.19951,316.15791 855.99879,337.04291 871.53069,336.30811 C 881.40907,336.36391 887.47573,325.23501 884.81809,316.46141 C 882.64635,305.41991 869.87795,295.65311 858.72928,300.95711 C 857.10183,301.56471 855.94785,302.81351 854.64927,303.90391 z"
           id="path10621" />
        <path
           id="path10637"
           d="M 890.71825,185.25711 C 893.44372,170.10611 876.92463,158.54261 862.74228,162.47011 C 852.40684,164.25241 844.87656,176.21981 848.8123,185.69431 C 853.39134,200.09721 875.06401,205.63881 886.35303,193.50631 C 888.66556,191.29491 889.93102,188.23461 890.71825,185.25711 z"
           style="fill:#204a87;fill-opacity:1;stroke:none;stroke-opacity:0.51829266" />
      </g>
      <g
         transform="translate(-17.72787,-1025.262)"
         style="fill:#6d9acb;fill-opacity:1"
         id="g10657">
        <path
           transform="matrix(0.658371,-0.367412,0.365535,0.595611,519.2724,1385.933)"
           d="M 454.88458,195.39825 A 10.353974,12.769901 0 1 1 434.17663,195.39825 A 10.353974,12.769901 0 1 1 454.88458,195.39825 z"
           sodipodi:ry="12.769901"
           sodipodi:rx="10.353974"
           sodipodi:cy="195.39825"
           sodipodi:cx="444.53061"
           id="path10623"
           style="fill:#6d9acb;fill-opacity:1;stroke:none;stroke-opacity:0"
           sodipodi:type="arc" />
        <path
           style="fill:#6d9acb;fill-opacity:1;fill-rule:evenodd;stroke:none;stroke-width:1px;stroke-linecap:butt;stroke-linejoin:miter;stroke-opacity:0.51829266"
           d="M 815.58195,1220.1399 C 795.31843,1240.8012 757.31229,1236.9213 731.27756,1211.8968 C 705.24282,1186.8724 700.12819,1149.4552 720.39172,1128.7938 C 740.65524,1108.1325 778.70572,1112.3953 804.74045,1137.4197 C 830.77519,1162.4441 835.84547,1199.4785 815.58195,1220.1399 z"
           id="path10627"
           sodipodi:nodetypes="csssc" />
        <path
           sodipodi:nodetypes="cssssc"
           style="fill:#6d9acb;fill-opacity:1;fill-rule:evenodd;stroke:none;stroke-width:1px;stroke-linecap:butt;stroke-linejoin:miter;stroke-opacity:0.49390241"
           d="M 826.48131,1269.4236 C 812.52128,1275.6731 806.15242,1291.1949 812.34335,1304.0738 C 815.99484,1311.67 823.19547,1316.6407 831.35266,1318.1581 C 837.02564,1319.2134 843.16126,1318.5985 848.88753,1316.0351 C 862.84756,1309.7855 869.19754,1294.2723 863.00659,1281.3933 C 856.81565,1268.5144 840.44137,1263.1741 826.48131,1269.4236 z"
           id="path10629" />
        <path
           style="fill:#6d9acb;fill-opacity:1;fill-rule:evenodd;stroke:none;stroke-width:1px;stroke-linecap:butt;stroke-linejoin:miter;stroke-opacity:1"
           d="M 929.72608,1266.9916 C 926.09363,1276.5603 916.14097,1281.6335 908.03511,1278.3684 C 899.92923,1275.1034 896.2981,1264.6169 899.93055,1255.0482 C 903.56301,1245.4795 914.00975,1240.447 922.11561,1243.7121 C 930.22148,1246.9772 933.35853,1257.4229 929.72608,1266.9916 z"
           id="path10631"
           sodipodi:nodetypes="csssc" />
        <path
           style="fill:#6d9acb;fill-opacity:1;fill-rule:evenodd;stroke:none;stroke-width:1px;stroke-linecap:butt;stroke-linejoin:miter;stroke-opacity:0.5"
           d="M 948.59103,1309.265 C 945.48396,1307.0337 940.98011,1306.4046 936.95695,1307.7078 C 932.93378,1309.0111 928.85911,1312.0251 925.81221,1316.1892 C 922.76533,1320.3532 921.6873,1323.5965 921.68855,1327.7898 C 921.68978,1331.9831 923.69949,1336.6349 926.80656,1338.8661 C 929.91364,1341.0974 933.98675,1341.3877 938.00992,1340.0844 C 942.03308,1338.7811 946.73291,1335.2413 949.77981,1331.0772 C 952.82672,1326.9132 953.65155,1322.9027 953.65032,1318.7094 C 953.6491,1314.5161 951.69811,1311.4963 948.59103,1309.265 z"
           id="path10633"
           sodipodi:nodetypes="csssssssc" />
        <path
           style="fill:#6d9acb;fill-opacity:1;fill-rule:evenodd;stroke:none;stroke-width:1px;stroke-linecap:butt;stroke-linejoin:miter;stroke-opacity:0.48780488"
           d="M 982.2328,1315.6116 C 983.9083,1316.6442 984.83671,1318.5609 984.94347,1320.9113 C 985.05023,1323.2617 984.33745,1326.2018 982.73983,1328.746 C 981.1422,1331.2901 978.9664,1332.9499 976.79095,1333.8938 C 974.6155,1334.8377 972.4592,1334.8764 970.7837,1333.8438 C 969.10822,1332.8112 968.19027,1330.8778 968.08351,1328.5274 C 967.97675,1326.177 968.23363,1323.776 969.83125,1321.2318 C 971.42886,1318.6877 973.58864,1316.6394 975.7641,1315.6955 C 977.93955,1314.7517 980.55732,1314.579 982.2328,1315.6116 z"
           id="path10635"
           sodipodi:nodetypes="csssssssc" />
        <path
           sodipodi:type="arc"
           style="fill:#6d9acb;fill-opacity:1;stroke:none;stroke-opacity:0"
           id="path10639"
           sodipodi:cx="374.46872"
           sodipodi:cy="21.451492"
           sodipodi:rx="12.769901"
           sodipodi:ry="15.530961"
           d="M 387.23862,21.451492 A 12.769901,15.530961 0 1 1 361.69882,21.451492 A 12.769901,15.530961 0 1 1 387.23862,21.451492 z"
           transform="matrix(-0.246992,0.719961,-0.714311,-0.25785,990.3698,942.5295)" />
      </g>
      <g
         transform="translate(15.12249,-313.9363)"
         id="g10641">
        <path
           style="fill:#333333"
           id="path10643"
           d="M 136.79382,596.96316 L 100.04226,596.96316 L 100.04226,572.27109 C 100.04226,565.09519 99.643598,560.61524 98.836309,558.83622 C 98.029021,557.05719 96.245012,556.16519 93.504218,556.16519 C 90.399645,556.16519 88.431256,557.25154 87.594068,559.41427 C 86.75688,561.57701 86.338286,566.26128 86.338286,573.45213 L 86.338286,639.46043 C 86.338286,646.36723 86.75688,650.8721 87.594068,652.98002 C 88.431256,655.08794 90.309946,656.13941 93.240105,656.13941 C 96.040699,656.13941 97.884506,655.07797 98.74661,652.95012 C 99.613698,650.82725 100.04226,645.839 100.04226,637.98538 L 100.04226,620.01075 L 136.79382,620.01075 L 136.79382,625.56211 C 136.79382,640.31257 135.75232,650.77243 133.67928,656.94171 C 131.60625,663.11099 127.02164,668.51285 119.92548,673.15725 C 112.81935,677.80165 104.06874,680.11389 93.673649,680.11389 C 82.859968,680.11389 73.94491,678.15546 66.938443,674.2436 C 59.931975,670.32178 55.277607,664.89999 53.000256,657.97325 C 50.722905,651.04651 49.581738,640.63149 49.581738,626.71324 L 49.581738,585.23256 C 49.581738,575.00192 49.930566,567.33268 50.633206,562.21487 C 51.335846,557.10204 53.428817,552.17359 56.902151,547.43949 C 60.375485,542.70539 65.194301,538.97791 71.36358,536.25705 C 77.522893,533.54117 84.609093,532.18074 92.62218,532.18074 C 103.48569,532.18074 112.45557,534.28368 119.52183,538.48457 C 126.5881,542.69044 131.24247,547.92785 133.46002,554.1968 C 135.67757,560.47571 136.78884,570.23792 136.78884,583.48343 L 136.78884,596.96316 L 136.79382,596.96316 z"
           i:knockout="Off" />
        <path
           style="fill:#333333"
           id="path10645"
           d="M 228.96426,601.60756 L 228.96426,630.10186 C 228.96426,640.56671 228.44101,648.23595 227.38954,653.10958 C 226.33808,657.9882 224.10059,662.55287 220.66214,666.78366 C 217.2187,671.01943 212.79855,674.1539 207.40666,676.16714 C 202.01477,678.17041 195.82556,679.18202 188.82407,679.18202 C 181.01032,679.18202 174.39753,678.31493 168.98072,676.60069 C 163.55893,674.87648 159.34309,672.27023 156.33818,668.7969 C 153.33826,665.32356 151.20044,661.11271 149.91475,656.17429 C 148.62907,651.23588 147.98623,643.82577 147.98623,633.94894 L 147.98623,604.14903 C 147.98623,593.33535 149.15232,584.8937 151.48947,578.81412 C 153.81665,572.73952 158.01256,567.8609 164.07221,564.17329 C 170.13684,560.49564 177.89079,558.65183 187.33408,558.65183 C 195.26743,558.65183 202.06959,559.83785 207.75549,562.2049 C 213.44139,564.57195 217.82666,567.65659 220.91629,571.44885 C 224.01089,575.25108 226.1238,579.16793 227.25998,583.1944 C 228.40115,587.23583 228.96426,593.37521 228.96426,601.60756 z M 193.45851,592.8121 C 193.45851,586.84714 193.14954,583.08976 192.53162,581.53498 C 191.90871,579.98518 190.58316,579.20779 188.55996,579.20779 C 186.53675,579.20779 185.18131,579.98518 184.50358,581.53498 C 183.83084,583.08976 183.49198,586.84215 183.49198,592.8121 L 183.49198,645.38054 C 183.49198,650.88207 183.83084,654.46503 184.50358,656.12944 C 185.18629,657.79884 186.50686,658.63104 188.47524,658.63104 C 190.49845,658.63104 191.84393,657.87358 192.48677,656.34871 C 193.13958,654.82881 193.45851,651.54982 193.45851,646.51673 L 193.45851,592.8121 z"
           i:knockout="Off" />
        <path
           style="fill:#333333"
           id="path10647"
           d="M 277.07268,535.29528 L 277.07268,677.00433 L 240.63506,677.00433 L 240.63506,535.29528 L 277.07268,535.29528 z"
           i:knockout="Off" />
        <path
           style="fill:#333333"
           id="path10649"
           d="M 326.21762,535.29528 L 326.21762,677.00433 L 289.78,677.00433 L 289.78,535.29528 L 326.21762,535.29528 z"
           i:knockout="Off" />
        <path
           style="fill:#333333"
           id="path10651"
           d="M 602.56447,601.60756 L 602.56447,630.10186 C 602.56447,640.56671 602.04122,648.23595 600.98976,653.10958 C 599.93829,657.9882 597.7008,662.55287 594.26235,666.78366 C 590.81892,671.01943 586.39876,674.1539 581.00687,676.16714 C 575.61498,678.17041 569.42577,679.18202 562.42428,679.18202 C 554.61053,679.18202 547.99774,678.31493 542.58093,676.60069 C 537.15914,674.87648 532.9433,672.27023 529.93839,668.7969 C 526.93847,665.32356 524.80065,661.11271 523.51497,656.17429 C 522.22928,651.23588 521.58644,643.82577 521.58644,633.94894 L 521.58644,604.14903 C 521.58644,593.33535 522.75253,584.8937 525.08968,578.81412 C 527.41686,572.73952 531.61277,567.8609 537.67242,564.17329 C 543.73705,560.49564 551.491,558.65183 560.93429,558.65183 C 568.86764,558.65183 575.6698,559.83785 581.3557,562.2049 C 587.0416,564.57195 591.42687,567.65659 594.5165,571.44885 C 597.6111,575.25108 599.72401,579.16793 600.86019,583.1944 C 602.00136,587.23583 602.56447,593.37521 602.56447,601.60756 z M 567.05872,592.8121 C 567.05872,586.84714 566.74976,583.08976 566.13183,581.53498 C 565.50892,579.98518 564.18337,579.20779 562.16017,579.20779 C 560.13697,579.20779 558.78152,579.98518 558.10379,581.53498 C 557.43105,583.08976 557.09219,586.84215 557.09219,592.8121 L 557.09219,645.38054 C 557.09219,650.88207 557.43105,654.46503 558.10379,656.12944 C 558.7865,657.79884 560.10707,658.63104 562.07545,658.63104 C 564.09866,658.63104 565.44414,657.87358 566.08698,656.34871 C 566.73979,654.82881 567.05872,651.54982 567.05872,646.51673 L 567.05872,592.8121 z"
           i:knockout="Off" />
        <path
           sodipodi:nodetypes="cccccccccccsccccccscsccscccscccccccsssscccc"
           style="fill:#333333"
           id="path10653"
           d="M 740.73515,580.60311 C 739.50927,574.4438 735.8665,569.24127 729.79689,565.0055 C 723.73226,560.76972 714.72252,558.65682 702.7577,558.65682 L 670.60594,558.73655 L 670.60594,558.65682 C 660.81383,559.30963 653.33893,565.14503 648.18126,576.16302 L 649.42707,560.83949 L 614.23527,560.83949 L 614.23527,677.00433 L 649.74102,677.00433 L 649.74102,631.03871 C 649.74102,619.75162 650.20944,617.84802 650.9071,614.71853 C 651.60476,611.58904 653.4685,609.14724 656.49334,607.38815 C 658.73082,606.09748 661.91513,605.28521 666.01137,604.94136 L 666.01137,605.15066 L 696.16485,605.67889 L 696.16485,593.52969 C 696.16485,587.0664 696.44889,583.06484 697.02197,581.52003 C 697.58508,579.97522 699.03521,579.20281 701.36239,579.20281 C 703.40553,579.20281 704.86562,580.12471 705.75264,581.95357 C 706.6297,583.78741 707.06823,587.73416 707.06823,593.78882 C 707.06823,598.62259 706.6596,601.82184 705.85231,603.40154 C 705.03505,604.97625 698.84584,608.0559 687.26972,612.62057 C 676.44607,616.83641 669.67382,620.52403 666.93801,623.6884 C 664.2022,626.85277 662.84177,632.78784 662.84177,641.50855 L 662.84177,651.0814 C 662.84177,662.85186 665.41313,670.48124 670.56084,673.96454 C 675.69858,677.43787 681.35459,679.18202 687.5139,679.18202 C 692.22308,679.18202 696.27448,678.14051 699.67805,676.04754 C 703.07663,673.96454 705.84733,670.83007 708.0001,666.64911 L 708.0001,677.00433 L 742.57397,677.00433 L 742.57397,618.66527 C 742.57397,599.44981 741.96103,586.76242 740.73515,580.60311 z M 707.06823,645.68452 C 707.06823,651.55979 706.7493,655.18262 706.09649,656.56797 C 705.44368,657.95332 704.03342,658.63602 701.88065,658.63602 C 699.6033,658.63602 698.0834,657.75399 697.31598,655.99489 C 696.54856,654.2358 696.16983,650.32892 696.16983,644.27426 C 696.16983,638.98702 696.60836,634.93562 697.49538,632.1151 C 698.37243,629.29955 701.56172,625.8013 707.07321,621.63031 L 707.07321,645.68452 L 707.06823,645.68452 z"
           i:knockout="Off" />
        <path
           sodipodi:nodetypes="cccssccccccscscscccccscsccscccsccccccscsccccsssscccccsscccssccc"
           i:knockout="Off"
           d="M 510.35451,575.40055 C 509.97578,572.77437 508.84458,570.0834 506.98582,567.33763 C 505.1171,564.59185 502.40122,562.45901 498.84815,560.93912 C 495.28512,559.41922 491.08921,558.65678 486.25545,558.65678 C 482.04957,558.65678 478.15764,559.49397 474.57468,561.16835 C 470.99171,562.84272 467.74262,565.38917 464.82243,568.79274 L 464.82243,535.29525 L 429.31668,535.29525 L 429.31668,658.48649 L 417.09274,658.48649 L 417.09274,618.66025 C 417.09274,599.44977 416.4798,586.76239 415.25391,580.59809 C 414.02803,574.43379 410.38527,569.23625 404.31565,565.00048 C 398.25102,560.7647 389.24128,558.6518 377.27647,558.6518 C 367.29997,558.6518 359.18224,560.52052 352.94319,564.248 C 346.69418,567.97548 342.53814,572.27106 340.4651,577.13971 C 338.39207,582.00835 337.36053,588.92512 337.36053,597.89998 L 337.36053,605.68384 L 370.68859,605.68384 L 370.68859,593.53464 C 370.68859,587.07135 370.97264,583.06979 371.54571,581.52498 C 372.10882,579.98017 373.55895,579.20776 375.88614,579.20776 C 377.92927,579.20776 379.38937,580.12966 380.27639,581.95852 C 381.15345,583.79236 381.59197,587.73911 381.59197,593.79377 C 381.59197,598.62754 381.18335,601.82679 380.37606,603.40648 C 379.5588,604.9812 373.36959,608.06085 361.79347,612.62552 C 350.96982,616.84136 344.19757,620.52898 341.46176,623.69335 C 338.72594,626.85772 337.36551,632.79279 337.36551,641.5135 L 337.36551,651.08634 C 337.36551,662.85681 339.93688,670.48619 345.08459,673.96949 C 350.22233,677.44282 355.87834,679.18696 362.03765,679.18696 C 366.74683,679.18696 370.79823,678.14546 374.20179,676.05249 C 377.60038,673.96949 380.37107,670.83502 382.52384,666.65406 L 382.52384,677.00928 L 464.86073,677.00928 L 464.91213,668.22379 C 467.88216,671.8815 471.15118,674.62728 474.73414,676.45614 C 478.31711,678.27503 482.16917,679.19195 486.30528,679.19195 C 492.06593,679.19195 497.03923,677.65212 501.22517,674.59738 C 505.42108,671.53267 508.07715,667.90486 509.21832,663.7239 C 510.35949,659.54793 510.9226,653.19427 510.9226,644.65794 L 510.9226,592.23401 C 510.91761,583.64286 510.73323,578.03171 510.35451,575.40055 z M 381.58699,645.68449 C 381.58699,651.55975 381.26806,655.18259 380.61525,656.56793 C 379.96245,657.95328 378.55218,658.63599 376.39941,658.63599 C 374.12206,658.63599 372.60217,657.75395 371.83474,655.99486 C 371.06732,654.23577 370.68859,650.32889 370.68859,644.27422 C 370.68859,638.98698 371.12712,634.93559 372.01414,632.11506 C 372.8912,629.29952 376.08048,625.80127 381.59197,621.63028 L 381.59197,645.68449 L 381.58699,645.68449 z M 475.41187,642.83406 C 475.41187,649.74086 475.08297,654.10122 474.4202,655.91014 C 473.75742,657.72405 472.34716,658.63101 470.16449,658.63101 C 468.03165,658.63101 466.61142,657.75395 465.9038,655.99984 C 465.18123,654.24573 464.82243,650.23919 464.82243,643.97523 L 464.82243,593.7838 C 464.82243,587.29061 465.13139,583.23922 465.76427,581.62963 C 466.39714,580.02501 467.77751,579.21773 469.90038,579.21773 C 472.08305,579.21773 473.53816,580.14461 474.29063,581.98344 C 475.03812,583.82724 475.41187,587.76402 475.41187,593.78879 L 475.41187,642.83406 z"
           id="path10655"
           style="fill:#333333" />
      </g>
    </g>
  </g>
</svg>
